HIERARCHY
ROOT hip
{
  OFFSET 0 0 0
  CHANNELS 6 Xposition Yposition Zposition Zrotation Yrotation Xrotation
  JOINT abdomen
  {
    OFFSET 0 20.6881 -0.73152
    CHANNELS 3 Zrotation Xrotation Yrotation
    JOINT chest
    {
      OFFSET 0 11.7043 -0.48768
      CHANNELS 3 Zrotation Xrotation Yrotation
      JOINT neck
      {
        OFFSET 0 22.1894 -2.19456
        CHANNELS 3 Zrotation Xrotation Yrotation
        JOINT head
        {
          OFFSET -0.24384 7.07133 1.2192
          CHANNELS 3 Zrotation Xrotation Yrotation
          JOINT leftEye
          {
            OFFSET 4.14528 8.04674 8.04672
            CHANNELS 3 Zrotation Xrotation Yrotation
            End Site
            {
              OFFSET 1 0 0
            }
          }
          JOINT rightEye
          {
            OFFSET -3.6576 8.04674 8.04672
            CHANNELS 3 Zrotation Xrotation Yrotation
            End Site
            {
              OFFSET 1 0 0
            }
          }
        }
      }
      JOINT rCollar
      {
        OFFSET -2.68224 19.2634 -4.8768
        CHANNELS 3 Zrotation Xrotation Yrotation
        JOINT rShldr
        {
          OFFSET -8.77824 -1.95073 1.46304
          CHANNELS 3 Zrotation Xrotation Yrotation
          JOINT rForeArm
          {
            OFFSET -28.1742 -1.7115 0.48768
            CHANNELS 3 Zrotation Xrotation Yrotation
            JOINT rHand
            {
              OFFSET -22.5879 0.773209 7.07136
              CHANNELS 3 Zrotation Xrotation Yrotation
              JOINT rThumb1
              {
                OFFSET -1.2192 -0.487915 3.41376
                CHANNELS 3 Zrotation Xrotation Yrotation
                JOINT rThumb2
                {
                  OFFSET -3.37035 -0.52449 3.41376
                  CHANNELS 3 Zrotation Xrotation Yrotation
                  End Site
                  {
                    OFFSET -1.78271 -1.18214 1.43049
                  }
                }
              }
              JOINT rIndex1
              {
                OFFSET -7.75947 0.938293 5.60832
                CHANNELS 3 Zrotation Xrotation Yrotation
                JOINT rIndex2
                {
                  OFFSET -2.54057 -0.884171 1.56538
                  CHANNELS 3 Zrotation Xrotation Yrotation
                  End Site
                  {
                    OFFSET -1.62519 -0.234802 1.16502
                  }
                }
              }
              JOINT rMid1
              {
                OFFSET -8.24714 1.18213 3.41376
                CHANNELS 3 Zrotation Xrotation Yrotation
                JOINT rMid2
                {
                  OFFSET -3.10165 -0.590103 1.0647
                  CHANNELS 3 Zrotation Xrotation Yrotation
                  End Site
                  {
                    OFFSET -2.48547 -0.328903 0.83742
                  }
                }
              }
              JOINT rRing1
              {
                OFFSET -8.82822 0.546677 1.51678
                CHANNELS 3 Zrotation Xrotation Yrotation
                JOINT rRing2
                {
                  OFFSET -2.60934 -0.819778 -0.0198488
                  CHANNELS 3 Zrotation Xrotation Yrotation
                  End Site
                  {
                    OFFSET -2.33842 -0.294052 0.168128
                  }
                }
              }
              JOINT rPinky1
              {
                OFFSET -8.27202 -0.0477905 -0.4584
                CHANNELS 3 Zrotation Xrotation Yrotation
                JOINT rPinky2
                {
                  OFFSET -1.82734 -0.647385 -0.700984
                  CHANNELS 3 Zrotation Xrotation Yrotation
                  End Site
                  {
                    OFFSET -1.69225 -0.51767 -0.607171
                  }
                }
              }
            }
          }
        }
      }
      JOINT lCollar
      {
        OFFSET 2.68224 19.2634 -4.8768
        CHANNELS 3 Zrotation Xrotation Yrotation
        JOINT lShldr
        {
          OFFSET 8.77824 -1.95073 1.46304
          CHANNELS 3 Zrotation Xrotation Yrotation
          JOINT lForeArm
          {
            OFFSET 28.1742 -1.7115 0.48768
            CHANNELS 3 Zrotation Xrotation Yrotation
            JOINT lHand
            {
              OFFSET 22.5879 0.773209 7.07136
              CHANNELS 3 Zrotation Xrotation Yrotation
              JOINT lThumb1
              {
                OFFSET 1.2192 -0.487915 3.41376
                CHANNELS 3 Zrotation Xrotation Yrotation
                JOINT lThumb2
                {
                  OFFSET 3.37035 -0.52449 3.41376
                  CHANNELS 3 Zrotation Xrotation Yrotation
                  End Site
                  {
                    OFFSET 1.78271 -1.18214 1.43049
                  }
                }
              }
              JOINT lIndex1
              {
                OFFSET 7.75947 0.938293 5.60832
                CHANNELS 3 Zrotation Xrotation Yrotation
                JOINT lIndex2
                {
                  OFFSET 2.54057 -0.884171 1.56538
                  CHANNELS 3 Zrotation Xrotation Yrotation
                  End Site
                  {
                    OFFSET 1.62519 -0.234802 1.16502
                  }
                }
              }
              JOINT lMid1
              {
                OFFSET 8.24714 1.18213 3.41376
                CHANNELS 3 Zrotation Xrotation Yrotation
                JOINT lMid2
                {
                  OFFSET 3.10165 -0.590103 1.0647
                  CHANNELS 3 Zrotation Xrotation Yrotation
                  End Site
                  {
                    OFFSET 2.48547 -0.328903 0.83742
                  }
                }
              }
              JOINT lRing1
              {
                OFFSET 8.82822 0.546677 1.51678
                CHANNELS 3 Zrotation Xrotation Yrotation
                JOINT lRing2
                {
                  OFFSET 2.60934 -0.819778 -0.0198488
                  CHANNELS 3 Zrotation Xrotation Yrotation
                  End Site
                  {
                    OFFSET 2.33842 -0.294052 0.168128
                  }
                }
              }
              JOINT lPinky1
              {
                OFFSET 8.27202 -0.0477905 -0.4584
                CHANNELS 3 Zrotation Xrotation Yrotation
                JOINT lPinky2
                {
                  OFFSET 1.82734 -0.647385 -0.700984
                  CHANNELS 3 Zrotation Xrotation Yrotation
                  End Site
                  {
                    OFFSET 1.69225 -0.51767 -0.607171
                  }
                }
              }
            }
          }
        }
      }
    }
  }
  JOINT rButtock
  {
    OFFSET -8.77824 4.35084 1.2192
    CHANNELS 3 Zrotation Xrotation Yrotation
    JOINT rThigh
    {
      OFFSET 0 -1.70687 -2.19456
      CHANNELS 3 Zrotation Xrotation Yrotation
      JOINT rShin
      {
        OFFSET 0 -36.8199 0.73152
        CHANNELS 3 Zrotation Xrotation Yrotation
        JOINT rFoot
        {
          OFFSET 0.73152 -45.1104 -5.12064
          CHANNELS 3 Zrotation Xrotation Yrotation
          End Site
          {
            OFFSET -1.1221 -3.69964 12.103
          }
        }
      }
    }
  }
  JOINT lButtock
  {
    OFFSET 8.77824 4.35084 1.2192
    CHANNELS 3 Zrotation Xrotation Yrotation
    JOINT lThigh
    {
      OFFSET 0 -1.70687 -2.19456
      CHANNELS 3 Zrotation Xrotation Yrotation
      JOINT lShin
      {
        OFFSET 0 -36.8199 0.73152
        CHANNELS 3 Zrotation Xrotation Yrotation
        JOINT lFoot
        {
          OFFSET -0.73152 -45.1104 -5.12064
          CHANNELS 3 Zrotation Xrotation Yrotation
          End Site
          {
            OFFSET 1.1221 -3.69964 12.103
          }
        }
      }
    }
  }
}
MOTION
Frames:	4
Frame Time:	0.03333
-2.0985293071717024 59.554603576660156 -0.05369380861520767 -44.950843155384064 -3.9491383731365204 -28.348259031772614 -8.022355735301971 26.450920701026917 1.6061456501483917 6.497684195637703 -4.074828028678894 2.4241503328084946 -0.39521947503089905 22.436431646347046 -5.682143121957779 10.290247946977615 -20.400601476430893 -2.1514105796813965 -2.052757926285267 2.9890242218971252 1.2810099497437477 -1.797328144311905 -0.9904797747731209 1.517566367983818 0.5195807665586472 -0.9445338696241379 2.5718723237514496 35.07515341043472 36.884067356586456 36.9791516661644 -26.094691157341003 -31.61331743001938 79.46006119251251 -13.138411939144135 -18.030551970005035 -16.361234933137894 1.664845459163189 1.3607117906212807 1.125456914305687 0.6588085368275642 -1.2464721500873566 0.7792343571782112 1.9912542030215263 3.082530051469803 -1.6764227114617825 7.135635539889336 6.086911261081696 -0.3082870692014694 1.8112139403820038 -5.315457321703434 -1.7019682377576828 -2.02087115496397 3.596653863787651 3.4732115641236305 -6.75558865070343 -2.178506925702095 0.3365689516067505 14.968870729207993 7.8899551928043365 -0.28322920203208923 -0.8488318976014853 -0.12001879513263702 -1.2035869807004929 4.5844866335392 -2.2478369995951653 2.559429556131363 3.6667148396372795 1.1661024391651154 -0.910580288618803 -55.39458453655243 42.057431638240814 -35.576825737953186 21.990614980459213 -19.9650040268898 -63.0036735534668 4.638536497950554 -0.5634047091007233 3.0585457384586334 -1.7201445624232292 -2.4495389498770237 -0.7611185498535633 3.827117308974266 -0.14927081996574998 -0.43213672935962677 -1.4684108644723892 -0.5818348377943039 2.570635825395584 -7.361262291669846 1.3680721074342728 -2.2562604770064354 2.5490205734968185 -0.5731569696217775 -0.1838439702987671 -3.577936738729477 -3.1031515449285507 -2.657238319516182 -0.9970963653177023 5.11455450206995 3.462483733892441 -11.42851173877716 2.654759958386421 -7.395370602607727 1.7725854367017746 -1.9357683509588242 -1.1885335855185986 1.4838684350252151 0.5164600163698196 3.760630711913109 3.329245336353779 -1.767333671450615 -1.4520809054374695 -38.255657851696014 -37.08963721990585 -35.819077491760254 -21.44393652677536 59.09687519073486 25.591101050376892 0.8129051327705383 -0.12767700478434563 4.777235873043537 -2.751714438199997 -1.9201981276273727 -0.4523448273539543 57.48129487037659 -29.306043684482574 30.116915702819824 25.143169462680817 62.64437019824982 -19.242601990699768 3.537122905254364 -0.08173294365406036 3.5670945793390274
-2.141539664939046 59.56174850463867 -0.059119515120983124 -44.9559822678566 -3.962055891752243 -28.288038074970245 -8.0408576130867 26.432037949562073 1.5782319009304047 6.511663869023323 -4.0665265917778015 2.4423759430646896 -0.3915797173976898 22.449494004249573 -5.698869377374649 10.297146588563919 -20.402977913618088 -2.1612703800201416 -2.031734772026539 2.9785367846488953 1.2744492664933205 -1.774776130914688 -0.9935106709599495 1.5183281153440475 0.529022142291069 -0.9621184319257736 2.5772367417812347 35.0491788983345 36.89775198698044 36.963739693164825 -26.10597789287567 -31.6200390458107 79.46640193462372 -13.126856982707977 -18.018946051597595 -16.353284865617752 1.6680426523089409 1.3347573950886726 1.117716059088707 0.6584571674466133 -1.2656821310520172 0.7470263913273811 1.9816197082400322 3.1075067818164825 -1.663076039403677 7.146294638514519 6.1106327176094055 -0.33577434718608856 1.8074910342693329 -5.329243876039982 -1.6768627613782883 -2.0166386291384697 3.5990678519010544 3.4611308947205544 -6.735793948173523 -2.164229527115822 0.34485697746276855 14.970549792051315 7.880921512842178 -0.2884541451931 -0.8615294750779867 -0.14555878937244415 -1.2146054953336716 4.591374546289444 -2.2354773804545403 2.5487570464611053 3.676118664443493 1.18221715092659 -0.8992506377398968 -55.37536382675171 42.08303064107895 -35.61746656894684 21.974602192640305 -19.99850481748581 -63.02131175994873 4.641175791621208 -0.5912782251834869 3.0653049051761627 -1.727316789329052 -2.431450132280588 -0.754260141402483 3.8126548379659653 -0.15022032195702195 -0.44739313423633575 -1.4686790853738785 -0.5841951817274094 2.555411607027054 -7.356504052877426 1.3726640492677689 -2.2668391093611717 2.54998616874218 -0.5492236185818911 -0.18948733806610107 -3.5759304463863373 -3.0954911559820175 -2.6789508014917374 -0.9916568454355001 5.122357048094273 3.439679592847824 -11.435077786445618 2.6550979167222977 -7.375396192073822 1.7677950114011765 -1.9086673110723495 -1.1776491813361645 1.5029550343751907 0.5114174634218216 3.7508728355169296 3.3324049785733223 -1.7575275152921677 -1.4399868249893188 -38.254880011081696 -37.11096614599228 -35.81443727016449 -21.42844408750534 59.11273241043091 25.551653802394867 0.8042147755622864 -0.12360809370875359 4.789938814938068 -2.741296738386154 -1.9191037863492966 -0.4741458222270012 57.46479392051697 -29.327276051044464 30.10151982307434 25.10100781917572 62.62532114982605 -19.179752469062805 3.5310181975364685 -0.08675403892993927 3.581042066216469
-2.1844018306583166 59.57317352294922 -0.06398505717515945 -44.97124940156937 -3.982977122068405 -28.184408247470856 -8.075994551181793 26.403327584266663 1.526612788438797 6.5332502871751785 -4.050776660442352 2.4724140018224716 -0.3856895864009857 22.473880648612976 -5.728513151407242 10.310965329408646 -20.405998080968857 -2.1823418140411377 -1.9962330535054207 2.9580500721931458 1.2627655640244484 -1.7344249784946442 -1.0041563585400581 1.5230058878660202 0.5416607111692429 -0.9897854179143906 2.583169788122177 35.00398099422455 36.91984802484512 36.93411737680435 -26.128916144371033 -31.635923087596893 79.47864890098572 -13.110634982585907 -18.001254200935364 -16.340485364198685 1.6756923124194145 1.2862375751137733 1.103258952498436 0.6601255014538765 -1.2974260747432709 0.6878461316227913 1.9630695506930351 3.150422126054764 -1.639129277318716 7.161690518260002 6.149417459964752 -0.38402192294597626 1.806890219449997 -5.354885794222355 -1.63212351500988 -2.0086349174380302 3.601825162768364 3.442564643919468 -6.700045466423035 -2.14330293238163 0.35657286643981934 14.972550719976425 7.864785343408585 -0.30288442969322205 -0.8886734303086996 -0.18929757177829742 -1.2315087765455246 4.605635851621628 -2.212860994040966 2.531636506319046 3.6907045170664787 1.2076659500598907 -0.881590973585844 -55.34244775772095 42.1272549033165 -35.686946511268616 21.948799341917038 -20.05645126104355 -63.04728627204895 4.648439213633537 -0.6405128538608551 3.077530413866043 -1.7406044527888298 -2.4029328860342503 -0.7418039627373219 3.7872274965047836 -0.14856003457680345 -0.47351785004138947 -1.4717153459787369 -0.5915873497724533 2.5307996571063995 -7.349562495946884 1.3822448998689651 -2.2853463515639305 2.5525986403226852 -0.5069198179990053 -0.1981133222579956 -3.5711024701595306 -3.0825521796941757 -2.716684117913246 -0.987215107306838 5.141607262194157 3.3990977704524994 -11.442620158195496 2.659837380051613 -7.340838611125946 1.7621167749166489 -1.8627103418111801 -1.1585759930312634 1.5312469750642776 0.5027700215578079 3.73214028775692 3.3381663635373116 -1.7403935641050339 -1.4173194766044617 -38.257116973400116 -37.14906424283981 -35.80790340900421 -21.40145033597946 59.143781661987305 25.485821664333344 0.7894143462181091 -0.11919049546122551 4.807931073009968 -2.725396603345871 -1.9208955019712448 -0.5106667801737785 57.441651821136475 -29.363174736499786 30.07307767868042 25.03059446811676 62.58937418460846 -19.075717628002167 3.5229822993278503 -0.0988132506608963 3.6011479049921036
-2.2272115889936686 59.57716369628906 -0.06865676492452621 -44.97614175081253 -3.98935005068779 -28.147801458835602 -8.088842332363129 26.39244854450226 1.5081135928630829 6.541372016072273 -4.044921398162842 2.483411058783531 -0.38084015250205994 22.483134269714355 -5.740368515253067 10.314806252717972 -20.407011955976486 -2.1893906593322754 -1.9835837557911873 2.9524657130241394 1.2574279680848122 -1.720670610666275 -1.0076861456036568 1.5248941630125046 0.5459844321012497 -1.0002728551626205 2.5847040116786957 34.98829811811447 36.928296983242035 36.92323833703995 -26.135782599449158 -31.64096564054489 79.48400259017944 -13.10504525899887 -17.994894683361053 -16.336977034807205 1.6787822172045708 1.2687629833817482 1.0999759286642075 0.6588380411267281 -1.308584064245224 0.6664903834462166 1.9577480480074883 3.165726810693741 -1.631490346044302 7.168567702174187 6.1634185910224915 -0.40072135627269745 1.806514710187912 -5.36523912101984 -1.6160034388303757 -2.0071006938815117 3.6020880192518234 3.4379834309220314 -6.68742835521698 -2.1362970024347305 0.36279022693634033 14.97344121336937 7.859109789133072 -0.3078518807888031 -0.8983883913606405 -0.20327992737293243 -1.2379621714353561 4.610783010721207 -2.2055868431925774 2.5249846279621124 3.6950765177607536 1.216849833726883 -0.8740915171802044 -55.33119320869446 42.14098781347275 -35.71286737918854 21.937652081251144 -20.076052844524384 -63.055375814437866 4.651003405451775 -0.6591273844242096 3.081752210855484 -1.746891550719738 -2.390476707369089 -0.7366648502647877 3.7802859395742416 -0.14881484443321824 -0.48233695328235626 -1.4722303301095963 -0.5937331169843674 2.521605044603348 -7.347867339849472 1.385093405842781 -2.2903459891676903 2.5522124022245407 -0.4921167064458132 -0.2007204294204712 -3.5676585137844086 -3.0787327140569687 -2.729872539639473 -0.9842968638986349 5.148479081690311 3.3852146565914154 -11.444690823554993 2.6614252477884293 -7.327105700969696 1.7607193440198898 -1.845211610198021 -1.1506822519004345 1.5410799533128738 0.4999912530183792 3.724501356482506 3.3398400619626045 -1.7340313643217087 -1.4092084765434265 -38.25979381799698 -37.16085523366928 -35.805848836898804 -21.391622722148895 59.153748750686646 25.463476181030273 0.7819148898124695 -0.11864332482218742 4.814422018826008 -2.7210836112499237 -1.921367570757866 -0.5248503014445305 57.43275761604309 -29.375990331172943 30.062482953071594 25.00609517097473 62.57670879364014 -19.039309322834015 3.5188302397727966 -0.10339982807636261 3.6087653785943985
